# xmcd
# 
# Track frame offsets:
#     183
#     12480
#     35058
#     54170
#     71893
#     87168
#     102883
#     126718
#     137303
#     152938
# 
# Disc length: 2275
# 
# Revision: 2
# Processed by: cddbd v1.5.2PL0 Copyright (c) Steve Scherf et al.
# Submitted via: fre:ac v1.0.31
# 
DISCID=8908e10a
DTITLE=Emmylou Harris - Brand New Dance
DYEAR=0
DGENRE=Country
TTITLE0=Wheels Of Love
TTITLE1=Tougher Than The Rest
TTITLE2=In His World
TTITLE3=Sweet Dreams Of You
TTITLE4=Easy For You To Say
TTITLE5=Rollin' And Ramblin' (The Death Of Hank Williams)
TTITLE6=Better Off Without You
TTITLE7=Never Be Anyone Else But You
TTITLE8=Brand New Dance
TTITLE9=Red Red Rose
EXTD=
EXTT0=
EXTT1=
EXTT2=
EXTT3=
EXTT4=
EXTT5=
EXTT6=
EXTT7=
EXTT8=
EXTT9=
PLAYORDER=
